<?xml version="1.0" encoding="utf-8"?>
<!-- Generator: Adobe Illustrator 27.4.0, SVG Export Plug-In . SVG Version: 6.00 Build 0)  -->
<svg version="1.1" id="Camada_1" xmlns="http://www.w3.org/2000/svg" xmlns:xlink="http://www.w3.org/1999/xlink" x="0px" y="0px"
	 viewBox="0 0 500.1 500" style="enable-background:new 0 0 500.1 500;" xml:space="preserve">
<style type="text/css">
	.st0{fill:#6C5AE2;}
	.st1{clip-path:url(#SVGID_00000044135589444602894120000011448728704060094341_);}
	.st2{fill:#1D1D1B;}
	.st3{fill:#FFFFFF;}
	.st4{fill:#3A3A38;}
	.st5{fill:#AF6131;}
	.st6{fill:#ACFFCF;}
	.st7{fill:#90D3AB;}
	.st8{fill:#BE8B92;}
	.st9{fill:#026466;}
	.st10{fill:#5757CE;}
	.st11{fill:#C04013;}
	.st12{fill:#C85831;}
</style>
<g>
	<g id="Camada_2_00000091004450930158170800000006890120166331339688_">
		<g id="OBJECTS">
			<g>
				<circle class="st0" cx="252.1" cy="231.2" r="215.1"/>
				<g>
					<defs>
						<rect id="SVGID_1_" width="500.1" height="500"/>
					</defs>
					<clipPath id="SVGID_00000141438966202326743640000005021596181292562571_">
						<use xlink:href="#SVGID_1_"  style="overflow:visible;"/>
					</clipPath>
					<g style="clip-path:url(#SVGID_00000141438966202326743640000005021596181292562571_);">
						<path class="st2" d="M308.8,90.3c0,0,3.7-35.8-34.5-42.6c0,0-52.4-19.7-77.1,22.8s-18.5,71.6-24.1,94.4s-30.9,60.5-21.6,110.4
							h77.1l1.9-119.7c0,0-21-75.3,33.3-95C263.8,60.7,296.5,55.2,308.8,90.3L308.8,90.3z"/>
						<g>
							<polygon class="st3" points="192.4,216.2 133.6,231.6 162.6,426 147.8,494.5 348.6,494.5 325.5,399.2 339.3,235.8 
								298.5,221.5 258.2,308.8 							"/>
							<path class="st4" d="M258.2,308.8c-0.2,1-0.3,1.7-0.3,2.9c0.5,14.1,2.8,84.9,2.8,84.9s2.1,65.3,2.6,78.4
								c0,1.2,0.2,1.9,0.5,2.9c0.2-1,0.3-1.7,0.3-2.9c-0.4-13-2.6-78.4-2.6-78.4s-2.3-70.8-2.8-84.9
								C258.7,310.4,258.5,309.8,258.2,308.8z"/>
							<path class="st2" d="M265.4,315c0,1.3-1,2.3-2.3,2.3s-2.3-1-2.3-2.3s1-2.3,2.3-2.3S265.4,313.7,265.4,315z"/>
							<path class="st2" d="M266.3,350c0,1.3-1,2.3-2.3,2.3s-2.3-1-2.3-2.3s1-2.3,2.3-2.3S266.3,348.7,266.3,350z"/>
							<path class="st2" d="M266.6,381.2c0,1.3-1,2.3-2.3,2.3s-2.3-1-2.3-2.3s1-2.3,2.3-2.3S266.6,379.9,266.6,381.2z"/>
						</g>
						<g>
							<path class="st5" d="M230.5,155.8l-2.5,50.6l-35.6,9.9l65.8,92.6l40.3-87.3l-12.5-4l-1.9-25.9
								C284.2,191.5,241.6,195.2,230.5,155.8L230.5,155.8z"/>
							<path class="st4" d="M228,206.3c-0.3,1-0.4,1.7-0.5,2.9c0,0.2,0,0.5,0,1.2c-0.1,1.5-0.2,5.1-0.2,5.1s-0.1,3-0.2,4.7
								c0,0.9-0.1,1.5-0.1,1.8c0,1.2,0.1,1.9,0.3,2.9c0.3-1,0.4-1.7,0.5-2.9c0-0.3,0-0.9,0.1-1.8c0.1-1.7,0.1-4.7,0.1-4.7
								s0.1-3.6,0.2-5.1c0-0.7,0-1,0-1.2C228.3,208,228.2,207.3,228,206.3L228,206.3z"/>
						</g>
						<g>
							<path class="st6" d="M202.7,213.1l57.4,183.2c0,0,22.8-34.1,28.4-59.9c5.3-24.4-2.5-100.8-2.5-119.7l62.9,22.2l-16,180.8
								l21.6,87H145.9l14.2-95l-26.5-180.2L202.7,213.1L202.7,213.1z"/>
							<g>
								<path class="st7" d="M307,224.2l13.6,14.2l-14.8,5.6c0,0,24.1,21.6,16.7,62.9c-7.4,41.3-48.1,75.3-58.6,121.6l-3.7-32.1
									c0,0,24.4-38,28.4-59.9c3.9-21.3-1.2-86.6-1.2-86.6s-0.2-16-1.2-33.1L307,224.2L307,224.2z"/>
								<g>
									<polygon class="st7" points="180.5,219.3 173.7,258.8 197.8,258.8 181.7,285.9 267.5,506.8 273.7,506.8 260.1,396.4 
										202.7,213.1 									"/>
									<path class="st4" d="M260.1,396.4c-0.1,1-0.2,1.7,0,2.9c1.1,9,6.7,54.4,6.7,54.4s5.2,42,6.2,50.4c0.1,1.2,0.4,1.9,0.7,2.8
										c0.1-1,0.2-1.7,0-2.9c-1-8.4-6.2-50.4-6.2-50.4s-5.6-45.3-6.7-54.4C260.7,398,260.5,397.3,260.1,396.4z"/>
								</g>
								<g>
									<circle class="st8" cx="281.1" cy="449.1" r="8.5"/>
									<circle class="st8" cx="289.3" cy="492" r="8.5"/>
								</g>
							</g>
						</g>
						<g>
							<path class="st6" d="M348.9,239c0,0,18.2,11.6,20,61.3c1.7,49.7,9.6,108.2,9.6,108.2l-45.6,11.3L348.9,239L348.9,239z"/>
							<g>
								<g>
									<path class="st6" d="M319.2,356.2l30.5-10.5c0,0,27,34.9,28.8,62.8c1.7,27.9-8.7,53.2-21.8,56.7s-35.8-7-36.6-52.3
										C319.2,367.5,319.2,356.2,319.2,356.2z"/>
									<path class="st4" d="M322.8,355.7c-1,0.2-1.7,0.3-2.8,0.8c-0.1,0.1-0.4,0.2-0.6,0.3c-0.1,0.1-0.3,0.1-0.5,0.2l-0.5,0.2
										l-0.3,0.1c0,0.1,0,0.2,0,0.3v0.4c0,0.4,0,0.8,0,1.2c0,0.8,0,1.7,0.1,2.6c0.2,7,0.4,15.4,0.7,23.3
										c0.5,15.9,0.9,30.4,0.9,30.4s0,0.9,0.1,2.5c0.1,1.6,0.2,3.9,0.5,6.7c0.6,5.6,1.6,13.2,4.5,20.7c0.7,1.9,1.6,3.7,2.5,5.5
										c1,1.8,2.1,3.5,3.3,5c1.2,1.6,2.6,3,4.1,4.2c0.8,0.6,1.5,1.2,2.3,1.7c0.4,0.2,0.8,0.5,1.2,0.8c0.4,0.2,0.7,0.4,1.1,0.6
										c0.7,0.4,1.3,0.6,1.6,0.8c0.5,0.3,1,0.4,1.5,0.5c0.5,0.1,0.9,0.1,1.4,0.2c-0.4-0.3-0.8-0.5-1.2-0.7
										c-0.4-0.2-0.8-0.4-1.3-0.7c-0.3-0.1-0.9-0.4-1.6-0.8c-0.4-0.2-0.7-0.4-1.1-0.6c-0.4-0.2-0.8-0.5-1.1-0.7
										c-0.8-0.5-1.5-1.1-2.2-1.6c-1.4-1.2-2.8-2.6-4-4.1c-1.2-1.5-2.3-3.2-3.3-4.9c-0.9-1.8-1.8-3.6-2.5-5.4
										c-2.8-7.4-3.9-15-4.5-20.5c-0.3-2.8-0.4-5.1-0.5-6.7c-0.1-1.6-0.1-2.5-0.1-2.5s-0.4-14.5-0.9-30.4
										c-0.2-8-0.5-16.3-0.7-23.3c0-0.9,0-1.7-0.1-2.6c0-0.4,0-0.8,0-1.2v-0.1c0,0,0,0,0,0l0,0l0.3-0.1c0.2-0.1,0.3-0.1,0.5-0.2
										c0.3-0.1,0.5-0.2,0.6-0.3C321.4,356.7,322,356.3,322.8,355.7L322.8,355.7z"/>
									<path class="st4" d="M349.7,345.7c0.4,0.9,0.7,1.5,1.5,2.5c0.1,0.1,0.2,0.3,0.4,0.6c0.5,0.7,1.2,1.6,1.9,2.5
										c2.2,3.1,4.8,6.9,7,10.6c2.2,3.7,4.3,7.3,5.7,10c0.7,1.4,1.3,2.5,1.7,3.2c0.4,0.8,0.6,1.2,0.6,1.2s0.2,0.5,0.6,1.2
										c0.4,0.8,0.9,1.9,1.5,3.3c0.6,1.4,1.3,3.1,2,4.9c0.6,1.9,1.4,3.8,2,5.9c0.3,1,0.6,2.1,0.9,3.1c0.3,1,0.6,2.1,0.8,3.1
										c0.2,1,0.5,2.1,0.7,3.1c0.1,0.5,0.2,1,0.3,1.5c0.1,0.5,0.1,1,0.2,1.4c0.1,0.8,0.2,1.4,0.2,1.7c0.2,1.2,0.4,1.8,0.8,2.8
										c0.1-1,0.2-1.7,0-2.9c0-0.3-0.1-1-0.2-1.8c-0.1-0.4-0.1-0.9-0.2-1.4c-0.1-0.5-0.2-1-0.3-1.5c-0.2-1-0.4-2.1-0.7-3.1
										c-0.2-1.1-0.5-2.1-0.8-3.2c-0.3-1.1-0.6-2.1-0.9-3.2c-0.7-2.1-1.4-4.1-2.1-5.9c-0.8-1.8-1.4-3.5-2-4.9
										c-0.6-1.4-1.2-2.5-1.5-3.3c-0.4-0.8-0.6-1.2-0.6-1.2s-0.2-0.5-0.6-1.2c-0.4-0.8-1-1.9-1.7-3.3c-1.4-2.7-3.5-6.4-5.7-10.1
										c-2.3-3.7-4.8-7.5-7.1-10.6c-0.7-1-1.3-1.8-1.9-2.6c-0.2-0.2-0.3-0.4-0.4-0.6C351.1,346.8,350.5,346.4,349.7,345.7
										L349.7,345.7z"/>
								</g>
								<g>
									<g>
										<path class="st5" d="M322.8,355.7c0,0-5.4-15.2-9.9-29.2c-4.5-14-8.2-18.1,0.4-35.4c8.6-17.3,14.4-27.6,14.4-27.6
											s4.9-0.4,4.5,9.9c-0.4,10.3-4.9,22.2-4.9,22.2l31,3.1c5,0.5,8.2,5.7,6.4,10.4l-15,36.5L322.8,355.7L322.8,355.7z"/>
										<g>
											<path class="st9" d="M355.8,224.1L355.8,224.1c2,1.1,2.9,3.6,1.9,5.7l-40.2,84.3l-4.1-2.9l36.4-85
												C350.8,223.9,353.5,223,355.8,224.1L355.8,224.1z"/>
											<path class="st9" d="M313.4,311.2l-1,5.7c-0.1,0.3,0.3,0.6,0.6,0.4l4.5-3.2L313.4,311.2L313.4,311.2z"/>
										</g>
									</g>
									<g>
										<g>
											<path class="st5" d="M365.3,306.5c0,0-3-31-5.9-31.8c-2-0.6-11.5,5.5-16.9,9c-2.4,1.6-4.1,3.9-4.9,6.7l-3.3,11.1
												l15.6-11.1L365.3,306.5L365.3,306.5z"/>
											<path class="st5" d="M361.1,300.1l-8.5-7.5c-1.6-1.4-3.9-1.5-5.6-0.4l-18,12.4c0,0,4.5,6.6,12.8,2.5l8.2-4.1l8.6,7.8
												L361.1,300.1L361.1,300.1z"/>
											<path class="st4" d="M358.6,310.8c-0.6-0.8-1.1-1.3-2.1-2c-0.2-0.1-0.5-0.4-0.9-0.7c-0.9-0.7-1.9-1.5-3-2.2
												c-0.6-0.5-1.2-0.9-1.9-1.4c-0.3-0.2-0.6-0.5-1-0.7l-0.5-0.4l-0.2-0.2c-0.1,0-0.2-0.2-0.2-0.1l-0.4,0.3
												c-2.5,1.9-5.5,3.5-8.5,4.3c-1.5,0.4-3.1,0.5-4.5,0.4c-1.5-0.2-2.8-0.7-3.8-1.5c-0.5-0.4-1-0.8-1.4-1.2
												c-0.2-0.2-0.4-0.4-0.6-0.7c0,0,0,0,0,0c0.9-0.6,1.7-1.1,2.4-1.6c1.4-0.9,2.1-1.4,2.1-1.4s1.9-1.2,4.8-3.1
												c1.5-1,3.2-2.1,5-3.3c0.9-0.6,1.9-1.2,2.9-1.9c0.9-0.7,2-1,3.2-1c1.1,0,2.3,0.5,3.1,1.3c0.9,0.8,1.9,1.7,2.8,2.5
												c1.8,1.6,3.6,3.2,5.2,4.7c0.6,0.5,1.1,1,1.3,1.2c0.9,0.8,1.5,1.1,2.4,1.6c-0.6-0.9-1-1.4-1.9-2.2
												c-0.2-0.2-0.7-0.6-1.3-1.2c-1.6-1.5-3.4-3-5.2-4.7c-0.9-0.8-1.8-1.6-2.8-2.5c-1-0.9-2.3-1.4-3.6-1.5
												c-1.3-0.1-2.7,0.4-3.6,1.1c-1,0.6-2,1.3-2.9,1.9c-1.9,1.2-3.6,2.3-5,3.3c-2.9,1.9-4.8,3.1-4.8,3.1s-0.8,0.5-2.1,1.4
												c-0.7,0.5-1.5,1-2.5,1.6l-0.4,0.2l-0.2,0.1l-0.1,0.1c0,0-0.1,0,0,0.1c0.2,0.2,0.4,0.4,0.5,0.6c0.2,0.2,0.4,0.5,0.6,0.7
												c0.4,0.5,0.9,0.9,1.5,1.3c1.1,0.8,2.6,1.4,4.2,1.6c1.6,0.2,3.2,0,4.8-0.4c3.2-0.8,6.2-2.5,8.8-4.5c0.1,0,0,0,0,0l0,0l0,0
												l0.5,0.3c0.3,0.2,0.6,0.5,1,0.7c0.6,0.5,1.3,1,1.9,1.4c1.1,0.8,2.1,1.6,3,2.2c0.4,0.3,0.7,0.5,0.9,0.7
												C357.1,310.1,357.7,310.4,358.6,310.8L358.6,310.8z"/>
											<path class="st5" d="M359.4,274.6l-4-4c-2.6-2.6-6.8-2.9-9.7-0.6l-11.8,9.2c-2.1,1.6-3.5,3.9-4.1,6.4l-2.4,10
												c0,0,2.5,8.2,8.6,0l9.9-13.6L359.4,274.6L359.4,274.6z"/>
											<path class="st5" d="M355.4,270.6l-9.9-5.4c-2.8-1.5-6.3-1.4-9,0.3l-21.1,13.3c0,0,1.6,5.4,9.5,2.9
												c7.2-2.3,7.4-1.6,7.4-1.6l13.4-10L355.4,270.6L355.4,270.6z"/>
											<path class="st4" d="M331.2,269c-1,0.3-1.6,0.6-2.6,1.2c-1.1,0.7-4.2,2.6-7.2,4.4c-1.7,1.1-3.4,2.1-4.6,2.9
												c-0.7,0.4-1.2,0.8-1.6,1c-0.1,0.1-0.2,0.1-0.2,0.2c0,0.1,0.1,0.2,0.1,0.2c0,0.1,0.1,0.3,0.1,0.4c0,0.1,0.1,0.2,0.1,0.2
												s0.1,0.2,0.3,0.6c0.2,0.4,0.6,0.9,1.1,1.4c0.6,0.5,1.3,1,2.3,1.3c1,0.3,2,0.3,3.1,0.1c2-0.4,4.1-1,5.8-1.6
												c0.8-0.3,1.4-0.5,1.7-0.5c1.1-0.3,1.7-0.6,2.7-0.7c-1-0.4-1.8-0.4-3-0.1c-0.3,0.1-1,0.3-1.7,0.5
												c-1.7,0.6-3.7,1.2-5.7,1.6c-1,0.2-1.9,0.1-2.7-0.1c-0.8-0.2-1.5-0.7-2-1.1c-0.5-0.5-0.8-0.9-1-1.2
												c-0.2-0.3-0.3-0.5-0.3-0.5s0,0-0.1-0.1l0,0c0.3-0.2,0.8-0.5,1.3-0.8c1.2-0.8,2.9-1.8,4.6-2.9c2.9-1.8,6.1-3.8,7.2-4.4
												C330,270.2,330.5,269.7,331.2,269L331.2,269z"/>
											<path class="st4" d="M351.6,268.5c-0.9-0.5-1.7-0.8-2.9-0.5c-0.2,0-0.4,0.1-0.7,0.2c-0.1,0.1-0.3,0.1-0.5,0.2l-0.3,0.1
												c-0.1,0.1-0.3,0.1-0.4,0.2c-0.3,0.1-0.5,0.3-0.8,0.5c-0.5,0.3-1,0.7-1.4,1.1c-1.9,1.5-4,3.1-6.1,4.8
												c-1.1,0.8-2.2,1.7-3.2,2.5l-1.6,1.3c-0.6,0.5-1.1,0.9-1.5,1.5c-0.9,1-1.7,2.2-2.2,3.5c-0.4,1.3-0.6,2.5-0.9,3.8
												c-0.6,2.4-1.1,4.6-1.6,6.5c-0.1,0.5-0.2,0.9-0.3,1.3c-0.1,0.5-0.1,0.9-0.1,1.3c0,0.8,0.2,1.5,0.5,2.1
												c0.3,0.6,0.8,0.9,1.1,1c0.3,0.2,0.5,0.1,0.5,0.1c0,0,0.2,0,0.5,0c0.3,0,0.8-0.1,1.3-0.4c0.3-0.1,0.6-0.2,0.9-0.4
												c0.3-0.2,0.6-0.3,1-0.6c0.6-0.4,1.4-0.9,2.1-1.7c0.7-0.8,1.3-1.7,1.6-2.9c0.2-0.6,0.2-1.2,0.4-1.7
												c0.1-0.6,0.3-1.1,0.5-1.7c0.7-2.3,2.1-4.7,4.3-6.1c1.1-0.7,2.4-1.1,3.7-1.8c1.2-0.6,2.5-1.2,3.7-1.9
												c1.2-0.6,2.4-1.3,3.5-1.9c1.1-0.6,2.2-1.2,3.2-1.8c0.7-0.4,1.2-0.7,1.5-0.9c1-0.6,1.6-1.1,2.3-1.8
												c-1,0.3-1.6,0.5-2.7,1.1c-0.3,0.2-0.8,0.5-1.5,0.9c-1,0.6-2.1,1.2-3.2,1.8c-1.1,0.6-2.3,1.3-3.5,1.9s-2.4,1.2-3.7,1.8
												c-1.2,0.6-2.5,1.1-3.8,1.8c-2.5,1.5-3.9,4.1-4.6,6.5c-0.2,0.6-0.4,1.2-0.5,1.8c-0.1,0.6-0.2,1.2-0.4,1.6
												c-0.3,1-0.8,1.9-1.4,2.6c-0.6,0.7-1.3,1.1-2,1.6c-0.3,0.2-0.6,0.4-0.9,0.5s-0.5,0.3-0.8,0.4c-0.5,0.2-0.9,0.3-1.1,0.3
												c-0.2,0-0.4,0-0.4,0c0,0-0.6,0.1-1.1-0.7c-0.2-0.4-0.4-1-0.4-1.8c0-0.4,0-0.8,0.1-1.1c0.1-0.4,0.2-0.9,0.3-1.3
												c0.5-1.9,1-4.1,1.6-6.5c0.3-1.2,0.6-2.5,0.9-3.7c0.4-1.2,1.1-2.3,2-3.3c0.4-0.5,0.9-1,1.5-1.4l1.6-1.3
												c1.1-0.8,2.2-1.7,3.2-2.5c2.1-1.7,4.2-3.3,6.1-4.8c0.5-0.4,0.9-0.8,1.4-1c0.2-0.1,0.5-0.3,0.7-0.4
												c0.1-0.1,0.2-0.1,0.4-0.2l0.3-0.1c0.2-0.1,0.3-0.1,0.4-0.2c0.3-0.1,0.5-0.2,0.6-0.2C350,268.5,350.6,268.4,351.6,268.5
												L351.6,268.5z"/>
											<path class="st4" d="M350,290.2c1-0.2,1.7-0.4,2.7-1c0.2-0.1,0.5-0.2,1.1-0.5c0,0,0.1-0.1,0.1-0.1s1.4-0.7,1.7-0.9
												c1.1-0.5,1.6-1,2.4-1.7c-1,0.2-1.7,0.4-2.7,1c-0.3,0.1-1.7,0.9-1.7,0.9s-0.1,0-0.1,0.1c-0.6,0.3-0.9,0.5-1.1,0.6
												C351.3,289.1,350.8,289.6,350,290.2L350,290.2z"/>
										</g>
										<path class="st4" d="M335.9,294.5c-0.3,0.2-0.5,0.4-0.5,0.8c-0.1,0.4-0.5,2.2-0.5,2.2s-0.4,1.9-0.5,2.2
											c-0.1,0.4,0,0.6,0.2,0.9c0.3-0.2,0.5-0.4,0.5-0.8c0.1-0.4,0.5-2.2,0.5-2.2s0.4-1.9,0.5-2.2
											C336.2,295,336.1,294.8,335.9,294.5z"/>
									</g>
								</g>
							</g>
						</g>
						<g>
							<g>
								<g>
									<path class="st10" d="M299.8,399c0,0,6.2,4.5,13.2-1.2l90.5-6.6l-59.6,38.7L295,440.1c-1.5,0.3-3,0.3-4.5,0l-115.8-25.8
										l37.8-31.7L299.8,399L299.8,399z"/>
									<path class="st0" d="M299.8,399l-15.5,39.6l6.3,1.5c1.4,0.3,2.9,0.4,4.4,0.1l6.4-1.2l11.5-41.1
										C312.9,397.8,303.9,404,299.8,399L299.8,399z"/>
									<path class="st3" d="M217.5,383.4c0,0,72.8-13.6,90.5,16.9c0,0-5.4,1.2-8.2-1.2L217.5,383.4L217.5,383.4z"/>
									<path class="st3" d="M294.4,388.8c0,0,72-30.9,109,2.5l-90.5,6.6c0,0-2.1,2.5-4.9,2.5C308,400.3,300.6,392.5,294.4,388.8z"
										/>
									<path class="st4" d="M229,385.1c1,0.2,1.7,0.2,2.9,0.2c0.7,0,2.2-0.1,4-0.2c4.1-0.2,8.9-0.2,13.5-0.1
										c4.6,0.1,9,0.5,12.2,0.8c3.2,0.3,5.3,0.7,5.3,0.7s2.1,0.3,5.3,0.9c3.2,0.6,7.5,1.6,11.8,3.1c0.5,0.2,1.1,0.4,1.6,0.6
										l1.6,0.7c1.1,0.4,2.1,0.9,3.1,1.4c1,0.5,2,1.1,3,1.6c0.5,0.3,0.9,0.6,1.4,0.9c0.2,0.1,0.4,0.3,0.7,0.4
										c0.2,0.1,0.5,0.3,0.6,0.4c0.6,0.5,1.1,0.9,1.4,1c0.9,0.7,1.5,1.1,2.4,1.6c-0.6-0.8-1-1.4-1.9-2.2c-0.3-0.2-0.8-0.6-1.4-1.1
										c-0.1-0.1-0.4-0.3-0.6-0.4c-0.2-0.1-0.5-0.3-0.7-0.4c-0.5-0.3-0.9-0.6-1.4-0.9c-1-0.5-2-1.1-3-1.6c-1-0.5-2.1-1-3.2-1.5
										l-1.6-0.7c-0.5-0.2-1.1-0.4-1.6-0.6c-4.4-1.5-8.7-2.5-11.9-3.2c-3.2-0.6-5.3-0.9-5.3-0.9s-2.1-0.3-5.3-0.7
										c-3.2-0.4-7.6-0.7-12.3-0.8c-4.6-0.1-9.5-0.1-13.6,0.1c-1.2,0.1-2.4,0.1-3.3,0.2c-0.3,0-0.6,0-0.7,0
										C230.7,384.5,230,384.7,229,385.1L229,385.1z"/>
									<path class="st4" d="M303.5,394.5c1-0.2,1.7-0.4,2.8-0.8c0.1-0.1,0.4-0.2,0.6-0.3c0.1-0.1,0.3-0.1,0.5-0.2
										c0.5-0.2,1.1-0.4,1.6-0.6c0.6-0.2,1.2-0.5,1.8-0.7c5-1.9,11-3.8,16.8-5.3c5.8-1.5,11.5-2.5,15.7-3c4.2-0.6,6.9-0.7,6.9-0.7
										s0.7,0,1.9-0.1c1.2-0.1,3-0.1,5.1-0.1c4.2,0,10,0.3,15.9,1.4c0.7,0.1,1.5,0.3,2.2,0.4l2.2,0.5c1.5,0.3,2.9,0.8,4.3,1.3
										l1.1,0.3c0.4,0.1,0.7,0.3,1,0.4c0.7,0.3,1.4,0.5,2,0.8c0.7,0.2,1.3,0.6,1.9,0.8c0.6,0.3,1.2,0.5,1.8,0.8
										c0.7,0.3,1.3,0.7,1.6,0.8c1,0.6,1.7,0.8,2.7,1c-0.8-0.7-1.3-1.1-2.3-1.7c-0.3-0.1-0.8-0.5-1.6-0.8
										c-0.6-0.3-1.2-0.5-1.8-0.8c-0.6-0.3-1.3-0.6-2-0.9c-0.7-0.3-1.4-0.5-2-0.8c-0.4-0.1-0.7-0.3-1-0.4l-1.1-0.3
										c-1.4-0.5-2.9-0.9-4.4-1.3l-2.2-0.6c-0.8-0.1-1.5-0.3-2.2-0.4c-6-1.1-11.8-1.5-16-1.4c-2.1,0-3.9,0.1-5.1,0.1
										c-1.2,0.1-1.9,0.1-1.9,0.1s-2.8,0.1-7,0.7c-4.2,0.5-9.9,1.6-15.8,3.1c-5.9,1.5-11.9,3.4-16.9,5.4c-0.6,0.2-1.2,0.5-1.8,0.7
										c-0.6,0.2-1.1,0.5-1.6,0.7c-0.2,0.1-0.3,0.1-0.5,0.2c-0.3,0.1-0.5,0.2-0.6,0.3C304.9,393.5,304.3,393.9,303.5,394.5
										L303.5,394.5z"/>
									<path class="st4" d="M308,400.3c1-0.3,1.7-0.5,2.7-1c0.1-0.1,0.4-0.2,0.6-0.3c0.1-0.1,0.3-0.1,0.4-0.2
										c0.4-0.2,0.8-0.4,1.3-0.6c0.5-0.2,0.9-0.4,1.4-0.6c3.9-1.8,8.5-3.6,13-5.1c4.5-1.5,9-2.7,12.2-3.4c1.6-0.4,3-0.6,4-0.8
										c1-0.2,1.5-0.3,1.5-0.3s0.5-0.1,1.5-0.2c1-0.1,2.3-0.3,4-0.5c3.4-0.3,7.9-0.5,12.7,0c2.4,0.3,4.8,0.6,7.1,1.2
										c1.1,0.3,2.3,0.6,3.4,0.9c0.5,0.2,1.1,0.4,1.6,0.5c0.5,0.2,1,0.4,1.4,0.6c0.7,0.3,1.3,0.5,1.6,0.7c1.1,0.5,1.7,0.7,2.7,0.9
										c-0.8-0.7-1.3-1.1-2.4-1.6c-0.3-0.2-0.9-0.4-1.6-0.7c-0.5-0.2-1-0.4-1.5-0.6c-0.5-0.2-1.1-0.4-1.6-0.5
										c-1.1-0.4-2.2-0.7-3.4-1c-2.3-0.6-4.8-0.9-7.2-1.2c-4.8-0.5-9.4-0.3-12.8,0c-1.7,0.2-3.1,0.3-4,0.5c-1,0.1-1.5,0.2-1.5,0.2
										s-0.5,0.1-1.5,0.3c-1,0.1-2.3,0.4-4,0.8c-3.3,0.7-7.8,1.9-12.3,3.4c-4.6,1.5-9.2,3.4-13.1,5.2c-0.5,0.2-1,0.4-1.4,0.6
										c-0.4,0.2-0.9,0.4-1.3,0.6c-0.2,0.1-0.3,0.1-0.5,0.2c-0.3,0.1-0.5,0.2-0.6,0.3C309.3,399.2,308.7,399.6,308,400.3
										L308,400.3z"/>
								</g>
								<path class="st4" d="M294.4,388.8c0.8,0.7,1.3,1.1,2.3,1.8c0.2,0.1,0.4,0.3,1,0.7c0.5,0.4,1.4,1.1,2.1,1.8
									c0.7,0.7,1.2,1.2,1.2,1.2s0.5,0.5,1,1.1c0.3,0.3,0.6,0.7,0.8,1.1c0.3,0.4,0.5,0.7,0.7,1c0.5,0.8,0.8,1.2,0.9,1.5
									c0.6,1,0.9,1.6,1.5,2.5c-0.1-1-0.3-1.7-0.8-2.8c-0.1-0.3-0.4-0.8-0.9-1.6c-0.2-0.3-0.5-0.7-0.7-1.1
									c-0.3-0.4-0.6-0.8-0.9-1.1c-0.5-0.7-1-1.2-1-1.2s-0.5-0.6-1.3-1.3c-0.7-0.7-1.6-1.4-2.2-1.8s-0.8-0.6-1-0.7
									C296.1,389.2,295.4,389,294.4,388.8L294.4,388.8z"/>
							</g>
							<g>
								<g>
									<path class="st5" d="M217.5,429.7c0,0,16.7-3.7,27.8-9.9c11.1-6.2,14.8-9.9,17.9-7.4c0,0-2.5,9.9-14.8,16l61.1-13.6
										c0,0,6.8,1.2,0.6,4.9c0,0,9.9,0.6,1.9,5.5c0,0,4.9,3.1-3.1,6.2c0,0,1.2,3.1-7.4,6.2c-8.6,3.1-62.9,22.2-88.9,24.7
										L217.5,429.7L217.5,429.7z"/>
									<path class="st4" d="M310.1,419.8c-1,0-1.7,0-2.9,0.4c-0.2,0-0.5,0.1-1.2,0.3c-3.1,0.8-10.4,2.7-10.4,2.7s-6.1,1.6-9.5,2.5
										c-0.9,0.2-1.4,0.4-1.7,0.5c-1.2,0.3-1.8,0.6-2.7,1.1c1,0,1.7,0,2.9-0.4c0.3-0.1,0.8-0.2,1.7-0.5c3.4-0.9,9.5-2.5,9.5-2.5
										s7.3-1.9,10.4-2.7c0.7-0.2,1-0.3,1.2-0.3C308.5,420.6,309.2,420.3,310.1,419.8L310.1,419.8z"/>
									<path class="st4" d="M311.9,425.4c-1,0-1.7,0-2.9,0.4c-0.2,0-0.5,0.1-1.2,0.3c-3,0.8-10.1,2.6-10.1,2.6s-5.9,1.5-9.2,2.4
										c-0.9,0.2-1.4,0.4-1.7,0.5c-1.2,0.3-1.8,0.6-2.7,1.1c1,0,1.7,0,2.9-0.4c0.3-0.1,0.8-0.2,1.7-0.4c3.3-0.9,9.2-2.4,9.2-2.4
										s7.1-1.8,10.1-2.6c0.7-0.2,1-0.3,1.2-0.3C310.4,426.2,311,425.9,311.9,425.4z"/>
									<path class="st4" d="M308.8,431.5c-1,0-1.7,0.1-2.9,0.4c-0.2,0-0.5,0.1-1.2,0.3c-2.5,0.6-8.2,2.2-8.2,2.2s-4.9,1.3-7.5,2
										c-0.9,0.2-1.4,0.4-1.7,0.5c-1.2,0.3-1.8,0.6-2.7,1.1c1,0,1.7-0.1,2.9-0.4c0.3-0.1,0.8-0.2,1.7-0.5c2.7-0.7,7.5-2,7.5-2
										s5.8-1.5,8.2-2.2c0.7-0.2,1-0.3,1.2-0.3C307.3,432.3,307.9,432,308.8,431.5L308.8,431.5z"/>
								</g>
								<g>
									<path class="st6" d="M133.6,231.6c0,0-20.4,6.2-30.8,50c-7.6,31.6-27.6,100.9-38.2,137.2c-3.8,12.9,3.5,26.4,16.3,30.4
										l128.7,40.3l8-67.2l-82.1-21l16-47.5L133.6,231.6L133.6,231.6z"/>
									<g>
										<path class="st4" d="M135.5,401.3c-0.9-0.4-1.6-0.7-2.7-1c-2.1-0.4-12.5-2.5-12.5-2.5s-6.7-1.4-10.3-2.1
											c-0.9-0.2-1.4-0.3-1.7-0.4c-1.2-0.2-1.9-0.2-2.9-0.2c0.9,0.4,1.6,0.7,2.7,1c0.3,0.1,0.8,0.2,1.7,0.4
											c3.7,0.8,10.3,2.1,10.3,2.1s10.4,2.1,12.5,2.5C133.7,401.4,134.4,401.4,135.5,401.3L135.5,401.3z"/>
										<path class="st4" d="M159.5,407.5c0.9,0.5,1.5,0.8,2.7,1.1c5.1,1.3,30.8,7.9,30.8,7.9s7.3,1.9,15.4,3.9
											c2,0.5,4.1,1,6.1,1.5c0.9,0.2,1.8,0.5,2.7,0.7c0,0.9,0,1.7,0,2.5c0,0.8,0,1.4,0,1.8c0,1.2,0.1,1.9,0.4,2.9
											c0.2-1,0.4-1.7,0.4-2.9c0-0.3,0-1,0-1.8c0-0.4,0-0.9,0-1.4c0-0.2,0-0.5,0-0.7v-0.4v-0.4c0-0.1,0.1-0.3-0.1-0.3
											c-1-0.3-2.1-0.5-3.2-0.8c-2-0.5-4.1-1-6.1-1.5c-8-2-15.4-3.9-15.4-3.9s-25.7-6.5-30.8-7.9
											C161.2,407.5,160.5,407.5,159.5,407.5L159.5,407.5z"/>
										<path class="st4" d="M149.2,471.2c0.9,0.5,1.5,0.9,2.6,1.2c7,2.1,41.9,12.7,41.9,12.7s1.4,0.4,4.4,1.3
											c1.5,0.5,3.4,1,5.6,1.7c1.1,0.4,2.4,0.7,3.7,1.1c0.3,0.1,0.7,0.2,1,0.3c0.2,0.1,0.5,0.1,0.7,0.2l0.5,0.2
											c0.1,0,0,0,0.1-0.1l0-0.1l0-0.3c0.1-0.8,0.2-1.7,0.3-2.5c0.6-5.4,2.1-18.1,2.5-21.7c0.1-1.2,0.1-1.9-0.1-2.9
											c-0.4,1-0.6,1.6-0.7,2.8c-0.4,3.6-1.9,16.3-2.5,21.7c-0.1,0.7-0.2,1.5-0.2,2.1c0,0,0.1,0-0.4-0.1c-0.4-0.1-0.7-0.2-1-0.3
											c-1.4-0.4-2.6-0.8-3.7-1.1c-2.3-0.7-4.1-1.3-5.6-1.7c-3-0.9-4.4-1.3-4.4-1.3s-34.9-10.6-41.9-12.7
											C151,471.4,150.3,471.3,149.2,471.2L149.2,471.2z"/>
										<path class="st4" d="M151.5,353.8c0.1-1,0.1-1.7-0.1-2.9c-1.2-6.4-7-38.7-7-38.7s-5.5-30-6.6-36c-0.2-1.2-0.5-1.8-0.9-2.8
											c-0.1,1-0.1,1.7,0.1,2.9c1.1,6,6.6,36,6.6,36s5.9,32.2,7,38.7C150.8,352.2,151.1,352.9,151.5,353.8z"/>
									</g>
								</g>
							</g>
						</g>
						<g>
							<g>
								<path class="st5" d="M225.5,131.7c0,0,3.7,67.2,54.9,61.7S323.6,78,286.6,64.4S226.8,79.2,225.5,131.7z"/>
								<circle class="st5" cx="228" cy="138.5" r="17.9"/>
								<g>
									<path class="st2" d="M226.3,120.7c0,0,22.7-15.5,18.4-47c0,0,21,3.7,30.8-12.3c0,0,12.3,12.6,33.3,29
										c0,0-8.3-37.6-46.6-30.8C262.3,59.5,220.6,67.8,226.3,120.7L226.3,120.7z"/>
									<g>
										<path class="st4" d="M275.5,61.3c-0.5,0.9-0.9,1.5-1.4,2.5c-0.1,0.2-0.2,0.4-0.3,0.6c-0.1,0.1-0.1,0.3-0.2,0.4
											c-0.1,0.3-0.3,0.6-0.5,0.9c-0.7,1.3-1.6,2.8-2.6,4.2c-1,1.3-2.1,2.5-3,3.3c-0.9,0.8-1.5,1.2-1.5,1.2s-1.5,1.1-3.6,2
											c-1.1,0.4-2.3,0.8-3.5,1c-1.2,0.2-2.4,0.2-3.4,0.2c-0.9,0-1.4-0.1-1.7-0.1c-1.2-0.1-1.8-0.2-2.9-0.1
											c0.9,0.4,1.6,0.8,2.8,0.9c0.3,0.1,0.9,0.1,1.8,0.2c1,0,2.3,0,3.6-0.2c1.3-0.2,2.6-0.6,3.7-1c2.2-0.9,3.8-2.1,3.8-2.1
											s0.7-0.4,1.6-1.2c0.9-0.8,2.1-2,3.1-3.4c1.1-1.4,2-2.9,2.7-4.3c0.2-0.3,0.3-0.7,0.5-1c0.1-0.2,0.1-0.3,0.2-0.4
											c0.1-0.3,0.2-0.5,0.3-0.7C275.3,63.1,275.5,62.4,275.5,61.3L275.5,61.3z"/>
										<path class="st4" d="M244.7,73.7c0.1,1,0.2,1.7,0.6,2.8c0.1,0.2,0.1,0.4,0.2,0.7c0,0.1,0.1,0.3,0.1,0.5
											c0.1,0.4,0.2,0.9,0.4,1.4c0.5,2,1,4.4,1.2,6.7c0.2,2.3,0.3,4.6,0.2,6.2s-0.3,2.7-0.3,2.7s0,0.3-0.1,0.7
											c-0.1,0.5-0.2,1.1-0.4,1.9c-0.3,1.6-1,3.7-2,5.8c-1,2.1-2.4,4.1-3.7,5.6c-0.5,0.6-1,1-1.2,1.3c-0.8,0.9-1.3,1.3-1.8,2.2
											c0.9-0.5,1.6-0.8,2.4-1.7c0.2-0.2,0.7-0.7,1.2-1.3c1.4-1.6,2.8-3.7,3.8-5.8c1-2.2,1.7-4.3,2.1-6c0.2-0.8,0.3-1.5,0.4-2
											c0.1-0.5,0.1-0.7,0.1-0.7s0.2-1.1,0.3-2.8c0.1-1.7,0.1-3.9-0.2-6.3c-0.2-2.4-0.7-4.8-1.2-6.8c-0.1-0.5-0.3-1-0.4-1.4
											c-0.1-0.2-0.1-0.3-0.1-0.5c-0.1-0.3-0.2-0.5-0.2-0.7C245.7,75.1,245.3,74.5,244.7,73.7L244.7,73.7z"/>
									</g>
								</g>
							</g>
							<g>
								<path class="st4" d="M284.2,191.5c-1-0.1-1.7-0.1-2.9,0c-0.2,0-0.4,0.1-0.7,0.1c-0.1,0-0.3,0-0.5,0.1l-0.1,0
									c-0.1,0-0.2,0-0.2,0l-0.5,0c-0.3,0-0.7,0.1-1,0.1c-0.7,0.1-1.4,0.1-2.1,0.2c-1.4,0-2.9,0.1-4.5,0c-1.5-0.1-3.1-0.1-4.7-0.4
									c-1.6-0.1-3.2-0.5-4.8-0.9c-1.6-0.4-3.1-0.9-4.6-1.5c-3-1.1-5.8-2.6-8.2-4.3c-2.4-1.7-4.4-3.5-6-5.1
									c-1.6-1.7-2.7-3.1-3.5-4.2c-0.4-0.5-0.7-0.9-0.9-1.2c-0.2-0.3-0.3-0.4-0.3-0.4s-0.4-0.6-1.1-1.7c-0.7-1.1-1.6-2.7-2.6-4.8
									c-1-2.1-2-4.5-2.9-7.3c-0.4-1.4-0.8-2.9-1.1-4.4c-0.2-1.5-0.3-3.1-0.4-4.8c-0.7-8.4-1.6-17.6-1.8-20.7
									c-0.1-1.2-0.3-1.9-0.6-2.8c-0.2,1-0.2,1.7-0.1,2.9c0.3,3.1,1.1,12.3,1.8,20.7c0.2,1.6,0.2,3.2,0.4,4.8
									c0.3,1.6,0.7,3.1,1.2,4.5c0.9,2.8,1.9,5.4,2.9,7.4c1,2.1,2,3.7,2.6,4.9c0.7,1.1,1.1,1.7,1.1,1.7s0.1,0.2,0.3,0.4
									c0.2,0.3,0.5,0.7,0.9,1.2c0.8,1.1,2,2.6,3.6,4.2c1.6,1.6,3.6,3.5,6.1,5.2c2.4,1.7,5.3,3.2,8.4,4.4c1.5,0.6,3.1,1,4.7,1.5
									c1.6,0.3,3.2,0.7,4.9,0.9c1.6,0.3,3.2,0.3,4.8,0.4c1.6,0.1,3.1,0,4.5,0c0.7-0.1,1.4-0.1,2.1-0.2c0.3,0,0.7-0.1,1-0.1l0.5,0
									c0.1,0,0.2,0,0.2,0l0.1,0c0.2,0,0.3-0.1,0.5-0.1c0.3,0,0.5-0.1,0.7-0.1C282.6,192.1,283.2,191.9,284.2,191.5L284.2,191.5z"
									/>
								<g>
									<g>
										<g>
											<path class="st2" d="M242.2,103.9L273,99C273,99,256.4,84.2,242.2,103.9L242.2,103.9z"/>
											<path class="st2" d="M290.2,99.5l31.1,2.5C321.3,102,308.6,83.7,290.2,99.5L290.2,99.5z"/>
										</g>
										<g>
											<path class="st2" d="M266.3,116.3c0,3.1-2.5,5.6-5.5,5.6s-5.6-2.5-5.6-5.6s2.5-5.6,5.6-5.6S266.3,113.2,266.3,116.3z"/>
											<path class="st2" d="M311.9,116.3c0,3.1-2.5,5.6-5.5,5.6s-5.5-2.5-5.5-5.6s2.5-5.6,5.5-5.6S311.9,113.2,311.9,116.3z"/>
										</g>
										<g>
											<path class="st4" d="M289.1,106.4c-0.2,1-0.4,1.7-0.3,2.9c0,0.2,0,0.4,0,0.7c0,0.6,0.1,1.3,0.2,2.1
												c0.2,2.3,0.6,5,1.1,7.6c0.5,2.6,1.3,4.9,2,6.6c0.4,0.9,0.6,1.5,0.8,2c0.1,0.5,0.2,0.8,0.2,0.8s0.1,0.3,0.2,0.8
												c0,0.2,0.1,0.6,0.1,0.9c0,0.2,0,0.4,0.1,0.6c0,0.2,0,0.4,0,0.6c0,1.7-0.4,4.2-2.1,6.1c-1.6,1.9-4.3,2.8-6.4,2.9
												c-0.8,0.1-1.4,0-1.7,0c-0.3,0-0.5,0-0.8,0c-0.2,0-0.5,0-0.7,0c-0.4,0-0.9,0-1.4,0.1c0.5,0.2,0.9,0.4,1.3,0.5
												c0.2,0.1,0.4,0.1,0.7,0.2c0.2,0,0.5,0.1,0.8,0.1c0.3,0,1,0.1,1.8,0c2.3-0.1,5.2-1.1,7-3.2c0.5-0.5,0.8-1.1,1.2-1.6
												c0.1-0.3,0.3-0.6,0.4-0.9c0.1-0.3,0.2-0.6,0.3-0.9c0.1-0.3,0.2-0.6,0.2-0.9c0.1-0.3,0.1-0.6,0.1-0.8
												c0-0.3,0.1-0.5,0.1-0.8c0-0.3,0-0.5,0-0.7s0-0.5,0-0.7c0-0.2,0-0.4-0.1-0.6c0-0.4-0.1-0.7-0.1-1
												c-0.1-0.5-0.2-0.8-0.2-0.8s-0.1-0.3-0.2-0.8c-0.2-0.5-0.5-1.2-0.8-2.1c-0.7-1.6-1.5-4-2-6.5c-0.5-2.5-0.9-5.2-1.1-7.5
												c-0.1-0.8-0.1-1.5-0.2-2.1c0-0.3,0-0.5,0-0.7C289.5,108.1,289.3,107.4,289.1,106.4L289.1,106.4z"/>
											<path class="st4" d="M279.1,137.1c-0.3,0.1-0.5,0.2-0.5,0.4c-0.1,0.2-0.4,1.3-0.4,1.3s-0.3,1.1-0.4,1.3
												c0,0.2,0,0.4,0.2,0.6c0.3-0.1,0.5-0.2,0.5-0.4c0.1-0.2,0.4-1.3,0.4-1.3s0.3-1.1,0.4-1.3
												C279.4,137.5,279.3,137.3,279.1,137.1z"/>
										</g>
										<g>
											<path class="st11" d="M274.9,153.3c0,0,15.4-15.4,25.3,0H274.9z"/>
											<path class="st11" d="M274.9,153.3c0,0,13.6,17.3,25.3,0H274.9z"/>
											<g>
												<path class="st12" d="M269.8,152.5c0.9,0.5,1.5,0.8,2.7,1c0.2,0,0.4,0.1,0.7,0.1c0.5,0.1,1.1,0.2,1.7,0.3
													c1.7,0.3,3.8,0.6,5.7,0.8c3.9,0.4,7.5,0.4,7.5,0.4s0.9,0,2.3-0.1c0.7,0,1.5-0.1,2.4-0.1c0.9,0,1.9-0.2,2.8-0.3
													c0.5-0.1,1-0.1,1.5-0.2c0.5-0.1,1-0.2,1.5-0.3c0.5-0.1,1-0.2,1.4-0.3c0.5-0.1,0.9-0.3,1.3-0.4c0.8-0.2,1.4-0.4,1.7-0.5
													c1.1-0.5,1.7-0.9,2.5-1.5c-1,0.2-1.7,0.3-2.8,0.7c-0.3,0.1-0.9,0.3-1.7,0.5c-0.4,0.1-0.8,0.2-1.3,0.4
													c-0.5,0.1-0.9,0.2-1.4,0.3c-0.5,0.1-1,0.2-1.4,0.3c-0.5,0.1-1,0.1-1.5,0.2c-1,0.1-1.9,0.3-2.8,0.3s-1.7,0.1-2.4,0.1
													c-1.4,0-2.3,0.1-2.3,0.1s-3.5,0-7.4-0.4c-1.9-0.2-4-0.5-5.7-0.8c-0.6-0.1-1.2-0.2-1.7-0.3c-0.3-0.1-0.5-0.1-0.7-0.1
													C271.5,152.5,270.8,152.4,269.8,152.5L269.8,152.5z"/>
											</g>
										</g>
									</g>
									<g>
										<path class="st3" d="M279.8,117.2c-0.1,0.5-0.3,0.9-0.4,1.4c-0.1,0.2-0.1,0.4-0.2,0.6l-0.2,0.6c-0.1,0.4-0.2,0.8-0.4,1.3
											c-0.1,0.5-0.3,0.9-0.5,1.5c-0.1,0.3-0.2,0.7-0.4,1.3c-0.1,0.3-0.2,0.6-0.3,0.9c-0.1,0.3-0.3,0.6-0.4,0.9
											c-0.2,0.3-0.3,0.7-0.5,1c-0.4,0.7-0.8,1.4-1.3,2c-1.9,2.6-4.8,4.9-8.2,6.3c-1.7,0.7-3.5,1.1-5.4,1.3
											c-1.9,0.2-3.7,0.1-5.6-0.3c-1.8-0.4-3.6-1-5.1-1.8c-1.6-0.9-3-1.8-4.2-3c-2.5-2.2-4-5-4.9-7.4c-0.9-2.4-1.2-4.6-1.2-6.1
											c-0.1-0.8,0-1.3,0-1.7c0-0.4,0-0.6,0-0.6s0-0.2,0.1-0.6s0.1-1,0.3-1.7c0.3-1.4,0.9-3.5,2.3-5.8c1.3-2.2,3.4-4.6,6.2-6.4
											c1.4-0.9,3-1.6,4.7-2.2c1.7-0.5,3.5-0.8,5.4-0.8c3.7,0,7.5,1,10.6,3c1.5,1,3,2.2,4.1,3.5c0.3,0.3,0.6,0.7,0.8,1
											c0.3,0.3,0.5,0.7,0.8,1c0.2,0.4,0.4,0.7,0.7,1.1c0.1,0.2,0.2,0.3,0.3,0.5l0.2,0.5c0.3,0.7,0.6,1.3,0.8,1.9
											c0.2,0.6,0.4,1,0.4,1.3c0.1,0.6,0.3,1.1,0.5,1.5c0.1,0.5,0.2,0.9,0.4,1.3l0.2,0.6c0,0.2,0.1,0.4,0.2,0.6
											C279.6,116.2,279.7,116.7,279.8,117.2c0.1-0.5,0.2-1,0.3-1.5c0-0.2,0.1-0.5,0.1-0.7v-0.7c0-0.5,0-0.9-0.1-1.4
											c-0.1-0.5-0.2-1.1-0.4-1.7c-0.1-0.3-0.3-0.8-0.5-1.4c-0.2-0.6-0.5-1.3-0.9-2l-0.2-0.5c-0.1-0.2-0.2-0.4-0.3-0.6
											c-0.2-0.4-0.5-0.8-0.7-1.2c-0.3-0.4-0.5-0.7-0.8-1.1c-0.3-0.4-0.6-0.8-0.9-1.1c-1.2-1.4-2.8-2.7-4.4-3.8
											c-3.3-2.2-7.4-3.3-11.4-3.2c-2,0-4,0.4-5.8,0.9c-1.8,0.6-3.6,1.3-5.1,2.3c-3.1,1.9-5.3,4.5-6.7,6.9
											c-1.4,2.4-2.1,4.7-2.5,6.2c-0.2,0.8-0.2,1.4-0.3,1.8s-0.1,0.7-0.1,0.7s0,0.2,0,0.7c0,0.4-0.1,1.1,0,1.9
											c0,1.6,0.3,3.9,1.3,6.6c1,2.6,2.7,5.6,5.3,8c1.3,1.3,2.9,2.3,4.6,3.2c1.7,0.9,3.6,1.5,5.5,2c2,0.4,4,0.5,6,0.3
											c2-0.2,4-0.6,5.8-1.4c3.7-1.5,6.8-4,8.9-6.8c0.6-0.7,1-1.4,1.4-2.2c0.2-0.3,0.4-0.7,0.6-1.1c0.2-0.3,0.3-0.7,0.5-1
											c0.1-0.3,0.2-0.7,0.4-1c0.2-0.6,0.4-1.1,0.5-1.4c0.1-0.6,0.3-1.2,0.4-1.7c0.1-0.5,0.1-1,0.1-1.4v-0.7
											c0-0.2-0.1-0.4-0.1-0.7C280,118.1,280,117.6,279.8,117.2L279.8,117.2z"/>
										<path class="st3" d="M332,117.2c-0.3,1-0.5,1.8-0.8,2.7c-0.1,0.4-0.2,0.8-0.3,1.3c-0.1,0.5-0.3,1-0.4,1.5
											c0,0.3-0.2,0.8-0.4,1.3c-0.1,0.3-0.2,0.6-0.3,0.9c-0.1,0.3-0.2,0.6-0.4,0.9c-0.1,0.3-0.3,0.7-0.5,1
											c-0.4,0.6-0.7,1.3-1.1,2c-1.7,2.6-4.2,4.9-7.4,6.4c-1.6,0.7-3.3,1.1-5,1.3c-1.7,0.2-3.5,0-5.2-0.4c-1.7-0.4-3.2-1.1-4.7-2
											c-1.4-0.9-2.6-2-3.7-3.1c-2.1-2.4-3.4-5-4.2-7.3c-0.7-2.4-0.9-4.4-1-5.8c-0.1-0.7,0-1.3,0-1.6c0-0.4,0-0.6,0-0.6
											s0-0.1,0-0.2s0-0.2,0-0.4c0-0.4,0.1-0.9,0.2-1.6c0.3-1.4,0.8-3.4,1.9-5.6c1.1-2.2,2.9-4.6,5.4-6.5
											c2.5-1.9,5.8-3.2,9.2-3.3c3.5-0.1,7,1,9.8,3c1.4,1,2.7,2.2,3.7,3.5c0.3,0.3,0.5,0.7,0.7,1c0.2,0.3,0.5,0.7,0.7,1
											c0.2,0.3,0.4,0.7,0.6,1.1c0.1,0.2,0.2,0.3,0.3,0.5l0.2,0.5c0.3,0.7,0.6,1.3,0.8,1.9c0.2,0.6,0.4,1,0.4,1.3
											c0.1,0.6,0.3,1.1,0.4,1.5c0.1,0.5,0.2,0.9,0.3,1.3C331.6,115.4,331.7,116.2,332,117.2c0.2-1,0.4-1.9,0.4-2.8
											c0-0.5,0-0.9,0-1.4c-0.1-0.5-0.2-1.1-0.3-1.7c-0.1-0.3-0.2-0.8-0.4-1.4c-0.2-0.6-0.5-1.3-0.8-2l-0.2-0.5
											c-0.1-0.2-0.2-0.4-0.3-0.6c-0.2-0.4-0.4-0.8-0.6-1.1c-0.2-0.4-0.5-0.7-0.7-1.1c-0.2-0.4-0.5-0.7-0.8-1.1
											c-1.1-1.4-2.5-2.7-4-3.8c-3-2.2-7-3.5-10.8-3.3c-3.8,0.1-7.4,1.6-10.1,3.6c-2.7,2.1-4.6,4.7-5.8,7.1c-1.2,2.4-1.7,4.5-2,6
											c-0.1,0.8-0.2,1.3-0.2,1.7c0,0.2,0,0.3,0,0.5c0,0.1,0,0.2,0,0.2s0,0.2,0,0.6c0,0.4-0.1,1,0,1.8c0,1.5,0.2,3.7,1,6.2
											c0.8,2.5,2.2,5.4,4.5,7.9c1.2,1.2,2.5,2.4,4.1,3.4c1.6,0.9,3.3,1.7,5.1,2.2c1.9,0.4,3.8,0.6,5.7,0.4
											c1.9-0.2,3.8-0.7,5.5-1.4c3.5-1.6,6.2-4.1,8-6.9c0.5-0.7,0.9-1.4,1.2-2.1c0.2-0.3,0.4-0.7,0.5-1.1
											c0.1-0.3,0.3-0.6,0.4-0.9c0.1-0.3,0.2-0.7,0.3-1c0.2-0.6,0.4-1.1,0.4-1.4c0.1-0.6,0.2-1.2,0.3-1.7c0-0.5,0-1,0-1.4
											C332.4,119,332.2,118.2,332,117.2L332,117.2z"/>
										<path class="st3" d="M279.5,113.8c0.8,0.5,1.3,0.8,2.2,0.8H294c0.9,0,1.5-0.3,2.2-0.8c-0.8-0.5-1.3-0.8-2.2-0.8h-12.2
											C280.9,113,280.3,113.3,279.5,113.8z"/>
										<path class="st3" d="M239.7,117.2c-0.8-0.3-1.2-0.5-2-0.3c-0.8,0.2-4.9,1.3-4.9,1.3s-4.1,1.1-4.9,1.3
											c-0.8,0.2-1.1,0.6-1.6,1.2c0.8,0.3,1.2,0.5,2,0.3c0.8-0.2,4.9-1.3,4.9-1.3s4.1-1.1,4.9-1.3
											C238.9,118.2,239.2,117.8,239.7,117.2z"/>
									</g>
								</g>
							</g>
						</g>
					</g>
				</g>
			</g>
		</g>
	</g>
</g>
</svg>
